# WaveFront *.obj file (generated by Autodesk ATF)

mtllib Field.mtl

g Solid1

v -5.000000 0.000000 -2.886751
v -5.000000 0.000000 2.886751
v -5.000000 1.000000 -2.886751
v -5.000000 1.000000 2.886751
v 0.000000 0.000000 -5.773503
v 0.000000 0.000000 5.773503
v 0.000000 1.000000 -5.773503
v 0.000000 1.000000 5.773503
v 5.000000 0.000000 -2.886751
v 5.000000 0.000000 2.886751
v 5.000000 1.000000 -2.886751
v 5.000000 1.000000 2.886751
vt 0.000000 0.000000 0.000000
vt 0.577350 0.000000 0.000000
vt 0.577350 0.100000 0.000000
vt 0.000000 0.100000 0.000000
vt 0.000000 0.000000 0.000000
vt 0.577350 0.000000 0.000000
vt 0.577350 0.100000 0.000000
vt 0.000000 0.100000 0.000000
vt 0.000000 0.000000 0.000000
vt 0.577350 0.000000 0.000000
vt 0.577350 0.100000 0.000000
vt 0.000000 0.100000 0.000000
vt 0.000000 0.000000 0.000000
vt 0.577350 0.000000 0.000000
vt 0.577350 0.100000 0.000000
vt 0.000000 0.100000 0.000000
vt 0.000000 0.000000 0.000000
vt 0.577350 0.000000 0.000000
vt 0.577350 0.100000 0.000000
vt 0.000000 0.100000 0.000000
vt 0.000000 0.000000 0.000000
vt 0.577350 0.000000 0.000000
vt 0.577350 0.100000 0.000000
vt 0.000000 0.100000 0.000000
vt 0.288675 0.500000 0.000000
vt -0.288675 0.500000 0.000000
vt -0.577350 0.000000 0.000000
vt -0.288675 -0.500000 0.000000
vt 0.288675 -0.500000 0.000000
vt 0.577350 0.000000 0.000000
vt 0.288675 0.500000 0.000000
vt -0.288675 0.500000 0.000000
vt -0.577350 0.000000 0.000000
vt -0.288675 -0.500000 0.000000
vt 0.288675 -0.500000 0.000000
vt 0.577350 0.000000 0.000000
vn 0.050000 0.000000 0.086603
vn 0.050000 0.000000 0.086603
vn 0.050000 0.000000 0.086603
vn 0.050000 0.000000 0.086603
vn -0.050000 0.000000 0.086603
vn -0.050000 0.000000 0.086603
vn -0.050000 0.000000 0.086603
vn -0.050000 0.000000 0.086603
vn -0.100000 0.000000 0.000000
vn -0.100000 0.000000 0.000000
vn -0.100000 0.000000 0.000000
vn -0.100000 0.000000 0.000000
vn -0.050000 0.000000 -0.086603
vn -0.050000 0.000000 -0.086603
vn -0.050000 0.000000 -0.086603
vn -0.050000 0.000000 -0.086603
vn 0.050000 0.000000 -0.086603
vn 0.050000 0.000000 -0.086603
vn 0.050000 0.000000 -0.086603
vn 0.050000 0.000000 -0.086603
vn 0.100000 0.000000 0.000000
vn 0.100000 0.000000 0.000000
vn 0.100000 0.000000 0.000000
vn 0.100000 0.000000 0.000000
vn 0.000000 -0.100000 0.000000
vn 0.000000 -0.100000 0.000000
vn 0.000000 -0.100000 0.000000
vn 0.000000 -0.100000 0.000000
vn 0.000000 -0.100000 0.000000
vn 0.000000 -0.100000 0.000000
vn 0.000000 0.100000 0.000000
vn 0.000000 0.100000 0.000000
vn 0.000000 0.100000 0.000000
vn 0.000000 0.100000 0.000000
vn 0.000000 0.100000 0.000000
vn 0.000000 0.100000 0.000000
usemtl 191,191,191
f 6/1/1 10/2/2 8/4/4
f 8/4/4 10/2/2 12/3/3
f 2/5/5 6/6/6 4/8/8
f 4/8/8 6/6/6 8/7/7
f 1/9/9 2/10/10 3/12/12
f 3/12/12 2/10/10 4/11/11
f 5/13/13 1/14/14 7/16/16
f 7/16/16 1/14/14 3/15/15
f 9/17/17 5/18/18 11/20/20
f 11/20/20 5/18/18 7/19/19
f 10/21/21 9/22/22 12/24/24
f 12/24/24 9/22/22 11/23/23
f 9/25/25 10/26/26 5/30/30
f 5/30/30 10/26/26 6/27/27
f 5/30/30 6/27/27 1/29/29
f 1/29/29 6/27/27 2/28/28
f 12/31/31 11/32/32 8/36/36
f 8/36/36 11/32/32 7/33/33
f 8/36/36 7/33/33 4/35/35
f 4/35/35 7/33/33 3/34/34

# 12 vertices
# 36 texture params
# 36 normals
# 20 facets

# 1 groups
